<svg width="61" height="22" viewBox="0 0 61 22" fill="none" xmlns="http://www.w3.org/2000/svg">
<path d="M49.6499 21.9996C48.8255 21.9996 48.1572 21.3313 48.1572 20.507V6.58759C48.1572 5.76322 48.8255 5.09494 49.6499 5.09494H50.0455C50.6514 5.09494 51.1425 5.58608 51.1425 6.19194V7.25215C51.1425 7.27248 51.159 7.28895 51.1793 7.28895C51.1935 7.28895 51.2064 7.28075 51.2126 7.26803C51.9466 5.75777 53.3329 4.83118 55.1469 4.83118C58.372 4.83118 60.4101 7.3489 60.4101 11.4492V11.4612C60.4101 15.5375 58.372 18.0552 55.1829 18.0552C53.381 18.0552 51.9354 17.1525 51.2126 15.6782C51.2064 15.6655 51.1935 15.6574 51.1794 15.6574C51.159 15.6574 51.1425 15.6739 51.1425 15.6942V20.507C51.1425 21.3313 50.4742 21.9996 49.6499 21.9996ZM54.2597 15.5375C56.166 15.5375 57.3649 13.9669 57.3649 11.4612V11.4492C57.3649 8.90748 56.166 7.3489 54.2597 7.3489C52.4134 7.3489 51.1185 8.95544 51.1185 11.4492V11.4612C51.1185 13.9429 52.4134 15.5375 54.2597 15.5375Z" fill="#2579EF"/>
<path d="M43.6382 3.27279C42.703 3.27279 41.9717 2.52946 41.9717 1.64227C41.9717 0.731093 42.703 -0.000244141 43.6382 -0.000244141C44.5733 -0.000244141 45.2927 0.731093 45.2927 1.64227C45.2927 2.52946 44.5733 3.27279 43.6382 3.27279ZM43.6322 17.8036C42.8078 17.8036 42.1395 17.1353 42.1395 16.311V6.58779C42.1395 5.76342 42.8078 5.09514 43.6322 5.09514V5.09514C44.4565 5.09514 45.1248 5.76342 45.1248 6.58779V16.311C45.1248 17.1353 44.4565 17.8036 43.6322 17.8036V17.8036Z" fill="#2579EF"/>
<path d="M38.0391 18.0568C35.3775 18.0568 34.1187 16.9778 34.1187 14.3641V8.29764C34.1187 7.80103 33.7161 7.39845 33.2195 7.39845C32.7229 7.39845 32.3203 6.99587 32.3203 6.49927V5.99572C32.3203 5.49912 32.7229 5.09654 33.2195 5.09654C33.7161 5.09654 34.1187 4.69396 34.1187 4.19735V3.38809C34.1187 2.55048 34.7977 1.87146 35.6353 1.87146C36.4729 1.87146 37.1519 2.55048 37.1519 3.38809V3.91561C37.1519 4.56782 37.6807 5.09654 38.3329 5.09654H38.3628C38.9985 5.09654 39.5138 5.61184 39.5138 6.2475C39.5138 6.88315 38.9985 7.39845 38.3628 7.39845H38.3329C37.6807 7.39845 37.1519 7.92717 37.1519 8.57938V14.1124C37.1519 15.3592 37.7034 15.7549 38.7944 15.7549C39.1857 15.7549 39.5138 16.0369 39.5138 16.4281V16.9376C39.5138 17.5172 39.0864 18.0166 38.5075 18.0451C38.358 18.0524 38.2012 18.0568 38.0391 18.0568Z" fill="#2579EF"/>
<path d="M28.7905 17.8036C27.9661 17.8036 27.2979 17.1353 27.2979 16.311V1.99594C27.2979 1.17158 27.9661 0.503296 28.7905 0.503296C29.6149 0.503296 30.2831 1.17158 30.2831 1.99594V16.311C30.2831 17.1353 29.6149 17.8036 28.7905 17.8036Z" fill="#2579EF"/>
<path d="M22.6889 17.8036C21.8646 17.8036 21.1963 17.1353 21.1963 16.311V1.99594C21.1963 1.17158 21.8646 0.503296 22.6889 0.503296C23.5133 0.503296 24.1816 1.17158 24.1816 1.99594V16.311C24.1816 17.1353 23.5133 17.8036 22.6889 17.8036Z" fill="#2579EF"/>
<path d="M16.5923 3.27279C15.6571 3.27279 14.9258 2.52946 14.9258 1.64227C14.9258 0.731093 15.6571 -0.000244141 16.5923 -0.000244141C17.5274 -0.000244141 18.2468 0.731093 18.2468 1.64227C18.2468 2.52946 17.5274 3.27279 16.5923 3.27279ZM16.5863 17.8036C15.7619 17.8036 15.0936 17.1353 15.0936 16.311V6.58779C15.0936 5.76342 15.7619 5.09514 16.5863 5.09514V5.09514C17.4106 5.09514 18.0789 5.76342 18.0789 6.58779V16.311C18.0789 17.1353 17.4106 17.8036 16.5863 17.8036V17.8036Z" fill="#2579EF"/>
<path d="M1.5466 17.8036C0.692436 17.8036 0 17.1112 0 16.257V2.17531C0 1.25188 0.748589 0.503296 1.67202 0.503296H6.66596C10.1668 0.503296 12.5526 2.8172 12.5526 6.28206V6.30604C12.5526 9.75891 10.1668 12.0848 6.66596 12.0848H4.76522C3.84179 12.0848 3.0932 12.8334 3.0932 13.7568V16.257C3.0932 17.1112 2.40076 17.8036 1.5466 17.8036ZM5.89866 3.033H4.76522C3.84179 3.033 3.0932 3.78159 3.0932 4.70503V7.91904C3.0932 8.84247 3.84179 9.59106 4.76522 9.59106H5.89866C8.11665 9.59106 9.41147 8.39215 9.41147 6.31803V6.29405C9.41147 4.21993 8.11665 3.033 5.89866 3.033Z" fill="#2579EF"/>
</svg>
