<svg width="36" height="36" viewBox="0 0 36 36" fill="none" xmlns="http://www.w3.org/2000/svg">
<g clip-path="url(#clip0_6500_13313)">
<path fill-rule="evenodd" clip-rule="evenodd" d="M35.7 17.85C35.7 22.5841 33.8194 27.1243 30.4719 30.4719C27.1243 33.8194 22.5841 35.7 17.85 35.7C13.1159 35.7 8.57567 33.8194 5.22814 30.4719C1.88062 27.1243 0 22.5841 0 17.85C0 13.1159 1.88062 8.57567 5.22814 5.22814C8.57567 1.88062 13.1159 0 17.85 0C22.5841 0 27.1243 1.88062 30.4719 5.22814C33.8194 8.57567 35.7 13.1159 35.7 17.85Z" fill="#CDD1DB"/>
<path d="M21.8563 16.9786C22.8449 15.99 23.4003 14.6492 23.4003 13.2512C23.4003 11.8531 22.8449 10.5123 21.8563 9.5237C20.8677 8.53512 19.5269 7.97974 18.1289 7.97974C16.7308 7.97974 15.39 8.53512 14.4014 9.5237C13.4128 10.5123 12.8574 11.8531 12.8574 13.2512C12.8574 14.6492 13.4128 15.99 14.4014 16.9786C15.39 17.9672 16.7308 18.5226 18.1289 18.5226C19.5269 18.5226 20.8677 17.9672 21.8563 16.9786Z" fill="white"/>
<path d="M11.1251 23.2494C13.1763 21.9202 15.5622 21.2139 17.9992 21.2144C20.4361 21.2139 22.822 21.9202 24.8733 23.2494C26.447 24.2692 27.773 25.2443 28.7637 26.6536C29.3367 27.4685 29.1714 28.5684 28.4488 29.2542C27.2481 30.3939 25.8696 31.3318 24.3654 32.0284C22.3681 32.9534 20.1963 33.4311 17.9992 33.4286C15.802 33.4311 13.6303 32.9534 11.633 32.0284C10.1287 31.3318 8.75025 30.3939 7.54948 29.2542C6.82692 28.5684 6.66167 27.4685 7.2346 26.6536C8.22536 25.2443 9.55135 24.2692 11.1251 23.2494Z" fill="white"/>
</g>
<defs>
<clipPath id="clip0_6500_13313">
<rect width="36" height="36" fill="white"/>
</clipPath>
</defs>
</svg>
